<svg width="137" height="67" viewBox="0 0 137 67" fill="none" xmlns="http://www.w3.org/2000/svg">
<path d="M27.4593 24V6.5H30.5593L36.0593 14.6L41.5093 6.5H44.6343V24H41.7343V11.075L36.0343 19.5L30.3593 11.125V24H27.4593ZM48.7728 24V6.5H54.9478C56.1478 6.5 57.2061 6.73333 58.1228 7.2C59.0394 7.66667 59.7561 8.31667 60.2728 9.15C60.7894 9.96667 61.0478 10.9167 61.0478 12C61.0478 13.0833 60.7728 14.0417 60.2228 14.875C59.6894 15.7083 58.9478 16.3667 57.9978 16.85C57.0478 17.3167 55.9728 17.55 54.7728 17.55H51.6728V24H48.7728ZM58.4728 24L54.3728 16.9L56.6228 15.35L61.7478 24H58.4728ZM51.6728 14.875H55.0728C55.6394 14.875 56.1394 14.75 56.5728 14.5C57.0228 14.25 57.3811 13.9083 57.6478 13.475C57.9311 13.0417 58.0728 12.55 58.0728 12C58.0728 11.1667 57.7728 10.4833 57.1728 9.95C56.5728 9.41667 55.7978 9.15 54.8478 9.15H51.6728V14.875Z" fill="white"/>
<path d="M49.2581 45V27.5H60.1331V30.15H52.1581V35.05H58.9831V37.7H52.1581V45H49.2581ZM69.6782 45.35C68.2949 45.35 67.0782 45.075 66.0282 44.525C64.9949 43.9583 64.1866 43.1667 63.6032 42.15C63.0366 41.1333 62.7532 39.95 62.7532 38.6V27.5H65.6532V38.6C65.6532 39.4167 65.8199 40.1333 66.1532 40.75C66.5032 41.35 66.9866 41.825 67.6032 42.175C68.2199 42.5083 68.9282 42.675 69.7282 42.675C70.5449 42.675 71.2616 42.5083 71.8782 42.175C72.5116 41.825 72.9949 41.35 73.3282 40.75C73.6616 40.1333 73.8282 39.4167 73.8282 38.6V27.5H76.7282V38.6C76.7282 39.95 76.4366 41.1333 75.8532 42.15C75.2866 43.1667 74.4699 43.9583 73.4032 44.525C72.3532 45.075 71.1116 45.35 69.6782 45.35ZM80.6302 45V27.5H91.4052V30.15H83.5302V34.8H90.4802V37.4H83.5302V42.35H91.4802V45H80.6302ZM95.3763 45V27.5H98.2763V42.35H106.201V45H95.3763ZM114.383 45.3C113.466 45.3 112.625 45.1917 111.858 44.975C111.108 44.7583 110.441 44.4583 109.858 44.075C109.291 43.6917 108.816 43.2667 108.433 42.8C108.066 42.3167 107.808 41.8167 107.658 41.3L110.508 40.425C110.725 41.0417 111.15 41.5833 111.783 42.05C112.416 42.5167 113.2 42.7583 114.133 42.775C115.216 42.775 116.075 42.55 116.708 42.1C117.341 41.65 117.658 41.0583 117.658 40.325C117.658 39.6583 117.391 39.1167 116.858 38.7C116.325 38.2667 115.608 37.9333 114.708 37.7L112.558 37.15C111.741 36.9333 111 36.6167 110.333 36.2C109.683 35.7833 109.166 35.2583 108.783 34.625C108.416 33.9917 108.233 33.2417 108.233 32.375C108.233 30.7417 108.766 29.475 109.833 28.575C110.9 27.6583 112.425 27.2 114.408 27.2C115.525 27.2 116.5 27.375 117.333 27.725C118.183 28.0583 118.883 28.525 119.433 29.125C119.983 29.7083 120.391 30.375 120.658 31.125L117.858 32.025C117.608 31.3583 117.175 30.8083 116.558 30.375C115.941 29.9417 115.175 29.725 114.258 29.725C113.308 29.725 112.558 29.95 112.008 30.4C111.475 30.85 111.208 31.475 111.208 32.275C111.208 32.925 111.416 33.4333 111.833 33.8C112.266 34.15 112.85 34.4167 113.583 34.6L115.733 35.125C117.3 35.5083 118.516 36.1667 119.383 37.1C120.25 38.0333 120.683 39.0667 120.683 40.2C120.683 41.2 120.441 42.0833 119.958 42.85C119.475 43.6167 118.758 44.2167 117.808 44.65C116.875 45.0833 115.733 45.3 114.383 45.3Z" fill="white"/>
<path d="M69.1763 63V55.296H66.4403V54.6H72.6803V55.296H69.9443V63H69.1763ZM74.0008 63V54.6H76.5808C77.1088 54.6 77.5768 54.708 77.9848 54.924C78.3928 55.132 78.7088 55.424 78.9328 55.8C79.1648 56.168 79.2808 56.596 79.2808 57.084C79.2808 57.564 79.1528 57.992 78.8968 58.368C78.6488 58.744 78.3088 59.04 77.8768 59.256C77.4448 59.464 76.9608 59.568 76.4248 59.568H74.7688V63H74.0008ZM78.7768 63L76.7368 59.52L77.3728 59.148L79.6168 63H78.7768ZM74.7688 58.86H76.7848C77.1048 58.86 77.3928 58.784 77.6488 58.632C77.9128 58.48 78.1248 58.272 78.2848 58.008C78.4448 57.736 78.5248 57.428 78.5248 57.084C78.5248 56.556 78.3408 56.128 77.9728 55.8C77.6128 55.464 77.1488 55.296 76.5808 55.296H74.7688V58.86ZM87.2268 63L83.7948 54.6H84.5868L88.0428 63H87.2268ZM80.3388 63L83.7948 54.6H84.5868L81.1548 63H80.3388ZM81.9708 60.396V59.7H86.4108V60.396H81.9708ZM89.3641 63V54.6H90.1321L95.4841 61.764V54.6H96.2521V63H95.4841L90.1321 55.824V63H89.3641ZM101.285 63.144C100.813 63.144 100.397 63.096 100.037 63C99.685 62.896 99.381 62.756 99.125 62.58C98.869 62.404 98.657 62.208 98.489 61.992C98.329 61.776 98.205 61.548 98.117 61.308L98.837 61.032C98.973 61.408 99.241 61.74 99.641 62.028C100.041 62.308 100.529 62.448 101.105 62.448C101.841 62.448 102.413 62.308 102.821 62.028C103.229 61.74 103.433 61.364 103.433 60.9C103.433 60.452 103.245 60.096 102.869 59.832C102.493 59.56 102.005 59.348 101.405 59.196L100.553 58.98C100.185 58.884 99.841 58.748 99.521 58.572C99.209 58.388 98.957 58.156 98.765 57.876C98.573 57.596 98.477 57.252 98.477 56.844C98.477 56.092 98.717 55.508 99.197 55.092C99.677 54.668 100.377 54.456 101.297 54.456C101.849 54.456 102.325 54.552 102.725 54.744C103.125 54.928 103.445 55.16 103.685 55.44C103.933 55.712 104.097 55.988 104.177 56.268L103.469 56.544C103.293 56.104 103.005 55.764 102.605 55.524C102.213 55.276 101.737 55.152 101.177 55.152C100.585 55.152 100.113 55.296 99.761 55.584C99.417 55.872 99.245 56.26 99.245 56.748C99.245 57.188 99.381 57.52 99.653 57.744C99.925 57.96 100.281 58.124 100.721 58.236L101.573 58.44C102.421 58.64 103.069 58.96 103.517 59.4C103.973 59.832 104.201 60.296 104.201 60.792C104.201 61.216 104.093 61.608 103.877 61.968C103.661 62.32 103.337 62.604 102.905 62.82C102.473 63.036 101.933 63.144 101.285 63.144ZM111.871 63L108.439 54.6H109.231L112.687 63H111.871ZM104.983 63L108.439 54.6H109.231L105.799 63H104.983ZM106.615 60.396V59.7H111.055V60.396H106.615ZM117.242 63.144C116.45 63.144 115.746 62.96 115.13 62.592C114.522 62.216 114.042 61.704 113.69 61.056C113.346 60.4 113.174 59.648 113.174 58.8C113.174 57.952 113.346 57.204 113.69 56.556C114.034 55.9 114.51 55.388 115.118 55.02C115.726 54.644 116.422 54.456 117.206 54.456C117.678 54.456 118.138 54.544 118.586 54.72C119.042 54.888 119.454 55.128 119.822 55.44C120.19 55.744 120.474 56.096 120.674 56.496L120.038 56.892C119.87 56.548 119.634 56.248 119.33 55.992C119.034 55.728 118.702 55.524 118.334 55.38C117.966 55.228 117.59 55.152 117.206 55.152C116.574 55.152 116.01 55.308 115.514 55.62C115.026 55.932 114.642 56.364 114.362 56.916C114.082 57.46 113.942 58.088 113.942 58.8C113.942 59.52 114.082 60.156 114.362 60.708C114.642 61.26 115.03 61.692 115.526 62.004C116.03 62.316 116.602 62.472 117.242 62.472C117.634 62.472 118.014 62.392 118.382 62.232C118.75 62.064 119.082 61.836 119.378 61.548C119.682 61.26 119.918 60.932 120.086 60.564L120.722 60.96C120.514 61.384 120.226 61.764 119.858 62.1C119.498 62.428 119.09 62.684 118.634 62.868C118.178 63.052 117.714 63.144 117.242 63.144ZM124.055 63V55.296H121.319V54.6H127.559V55.296H124.823V63H124.055Z" fill="white"/>
<rect x="21" y="25" width="21" height="21" fill="#3299FF"/>
<rect y="25" width="21" height="21" fill="#0068FF"/>
<rect y="4" width="21" height="21" fill="#F7BA00"/>
<path d="M0 46H21V67L10 56.5L0 46Z" fill="#07BD91"/>
<rect x="21" y="46" width="21" height="21" fill="#0ADFAC"/>
<rect x="42" y="46" width="21" height="21" fill="#01F4B9"/>
<rect x="131" y="57" width="6" height="6" fill="#E20C0C"/>
</svg>
